<svg width="46" height="46" viewBox="0 0 46 46" fill="none" xmlns="http://www.w3.org/2000/svg">
<rect x="5.30762" y="5.30859" width="35.3846" height="35.3846" rx="17.6923" fill="black"/>
<path d="M20.991 18.8901H23.803V32.9629H20.991V18.8901ZM22.4035 16.8816C21.9456 16.8816 21.5568 16.7218 21.2372 16.4021C20.9176 16.0911 20.7577 15.711 20.7577 15.2618C20.7577 14.8039 20.9176 14.4195 21.2372 14.1085C21.5568 13.7975 21.9456 13.642 22.4035 13.642C22.8613 13.642 23.2501 13.7975 23.5697 14.1085C23.8893 14.4195 24.0492 14.8039 24.0492 15.2618C24.0492 15.711 23.8893 16.0911 23.5697 16.4021C23.2501 16.7218 22.8613 16.8816 22.4035 16.8816Z" fill="#DBFB7D"/>
<circle cx="23" cy="23" r="22.5577" stroke="black" stroke-width="0.884623"/>
</svg>
