<?xml version="1.0" encoding="UTF-8"?> <svg xmlns="http://www.w3.org/2000/svg" width="165" height="56" viewBox="0 0 165 56" fill="none"><path d="M115.726 22.3949C115.726 22.7349 115.692 23.0749 115.624 23.4149C115.556 23.7514 115.452 24.0735 115.313 24.3813C115.173 24.6855 114.998 24.97 114.787 25.2349C114.579 25.4962 114.332 25.7252 114.046 25.9221C113.76 26.1153 113.436 26.2657 113.074 26.373C112.716 26.484 112.319 26.5395 111.882 26.5395C111.446 26.5395 111.047 26.484 110.685 26.373C110.324 26.2657 110 26.1153 109.713 25.9221C109.431 25.7252 109.184 25.4962 108.973 25.2349C108.761 24.97 108.586 24.6855 108.446 24.3813C108.307 24.0735 108.203 23.7514 108.135 23.4149C108.067 23.0749 108.033 22.7349 108.033 22.3949C108.033 21.7829 108.119 21.2227 108.291 20.7145C108.466 20.2063 108.718 19.7696 109.048 19.4046C109.377 19.0395 109.78 18.7568 110.256 18.5563C110.732 18.3523 111.274 18.2503 111.882 18.2503C112.487 18.2503 113.028 18.3523 113.504 18.5563C113.983 18.7568 114.386 19.0395 114.712 19.4046C115.041 19.7696 115.291 20.2063 115.463 20.7145C115.639 21.2227 115.726 21.7829 115.726 22.3949ZM114.674 22.3949C114.674 21.926 114.611 21.4948 114.486 21.1011C114.361 20.7038 114.178 20.3638 113.938 20.081C113.702 19.7947 113.411 19.5728 113.063 19.4153C112.716 19.2543 112.323 19.1737 111.882 19.1737C111.438 19.1737 111.043 19.2543 110.696 19.4153C110.349 19.5728 110.055 19.7947 109.815 20.081C109.579 20.3638 109.398 20.7038 109.273 21.1011C109.148 21.4948 109.085 21.926 109.085 22.3949C109.085 22.8745 109.143 23.3129 109.257 23.7102C109.372 24.1039 109.545 24.4421 109.778 24.7249C110.01 25.0076 110.3 25.2277 110.648 25.3852C110.998 25.5391 111.41 25.6161 111.882 25.6161C112.351 25.6161 112.761 25.5391 113.112 25.3852C113.462 25.2277 113.752 25.0076 113.981 24.7249C114.214 24.4421 114.388 24.1039 114.502 23.7102C114.617 23.3129 114.674 22.8745 114.674 22.3949ZM116.886 20.591H117.874V22.9103H120.558V20.591H121.551V26.3408H120.558V23.7693H117.874V26.3408H116.886V20.591ZM126.877 21.45H124.676L124.633 22.8298C124.611 23.5277 124.558 24.1111 124.472 24.5799C124.386 25.0452 124.268 25.4192 124.117 25.702C123.971 25.9847 123.792 26.1851 123.58 26.3032C123.369 26.4213 123.128 26.4804 122.856 26.4804C122.756 26.4804 122.668 26.4643 122.593 26.4321C122.521 26.4035 122.466 26.373 122.426 26.3408V25.4711C122.566 25.5248 122.689 25.5516 122.797 25.5516C122.872 25.5516 122.943 25.5391 123.011 25.5141C123.083 25.489 123.149 25.4407 123.21 25.3691C123.274 25.2975 123.334 25.1973 123.387 25.0685C123.441 24.936 123.487 24.7642 123.527 24.5531C123.57 24.3419 123.604 24.086 123.629 23.7854C123.657 23.4847 123.677 23.1268 123.688 22.7116L123.736 20.591H127.865V26.3408H126.877V21.45ZM129.309 22.3144C129.32 21.9636 129.386 21.6683 129.507 21.4285C129.629 21.1852 129.794 20.9883 130.001 20.838C130.209 20.6877 130.454 20.5803 130.737 20.5159C131.023 20.4479 131.335 20.4139 131.671 20.4139C131.95 20.4139 132.22 20.4425 132.482 20.4998C132.746 20.557 132.981 20.6501 133.185 20.7789C133.389 20.9042 133.552 21.0688 133.673 21.2729C133.799 21.4733 133.861 21.7184 133.861 22.0084V25.353C133.861 25.4461 133.886 25.5266 133.937 25.5946C133.987 25.659 134.067 25.6912 134.178 25.6912C134.228 25.6912 134.28 25.6876 134.334 25.6805C134.388 25.6697 134.443 25.659 134.5 25.6483V26.3301C134.418 26.3516 134.336 26.3712 134.253 26.3891C134.175 26.407 134.08 26.416 133.969 26.416C133.797 26.416 133.648 26.4017 133.523 26.373C133.401 26.3444 133.298 26.2979 133.212 26.2334C133.129 26.1654 133.065 26.0795 133.019 25.9758C132.972 25.8684 132.942 25.7377 132.927 25.5838C132.806 25.7163 132.677 25.8398 132.541 25.9543C132.405 26.0652 132.253 26.1637 132.084 26.2496C131.916 26.3319 131.728 26.3963 131.521 26.4428C131.313 26.4929 131.079 26.518 130.817 26.518C130.595 26.518 130.379 26.4822 130.168 26.4106C129.96 26.339 129.772 26.2334 129.604 26.0939C129.439 25.9543 129.307 25.7825 129.207 25.5785C129.107 25.3709 129.056 25.1311 129.056 24.8591C129.056 24.562 129.107 24.3061 129.207 24.0914C129.307 23.873 129.438 23.6923 129.599 23.5491C129.76 23.4024 129.944 23.2897 130.152 23.2109C130.359 23.1322 130.57 23.0803 130.785 23.0552L132.401 22.8566C132.555 22.8387 132.675 22.7796 132.761 22.6794C132.85 22.5756 132.895 22.411 132.895 22.1855C132.895 21.8383 132.78 21.5896 132.551 21.4393C132.326 21.2854 132 21.2084 131.574 21.2084C131.138 21.2084 130.812 21.3015 130.597 21.4876C130.383 21.6701 130.261 21.9457 130.232 22.3144H129.309ZM132.874 23.4149C132.795 23.4722 132.696 23.5205 132.578 23.5599C132.464 23.5957 132.337 23.6261 132.197 23.6511C132.058 23.6762 131.909 23.6995 131.752 23.7209C131.594 23.7388 131.437 23.7585 131.279 23.78C131.1 23.805 130.935 23.8408 130.785 23.8874C130.635 23.9339 130.504 23.9947 130.393 24.0699C130.282 24.1451 130.196 24.2363 130.136 24.3437C130.075 24.4475 130.044 24.571 130.044 24.7141C130.044 24.8788 130.069 25.0237 130.119 25.149C130.173 25.2743 130.245 25.3798 130.334 25.4657C130.427 25.5516 130.538 25.6161 130.667 25.659C130.796 25.702 130.937 25.7234 131.091 25.7234C131.188 25.7234 131.299 25.7127 131.424 25.6912C131.549 25.6662 131.678 25.6304 131.811 25.5838C131.943 25.5373 132.072 25.4783 132.197 25.4067C132.326 25.3315 132.44 25.242 132.541 25.1383C132.641 25.0345 132.721 24.9163 132.782 24.7839C132.843 24.6515 132.874 24.503 132.874 24.3383V23.4149ZM136.991 18.3577C137.038 18.5868 137.134 18.7693 137.281 18.9053C137.428 19.0377 137.644 19.1039 137.931 19.1039C138.221 19.1039 138.439 19.0395 138.586 18.9107C138.732 18.7782 138.827 18.5939 138.87 18.3577H139.788C139.785 18.5724 139.738 18.7675 139.649 18.9429C139.559 19.1147 139.432 19.2614 139.268 19.3831C139.107 19.5048 138.911 19.5996 138.682 19.6676C138.457 19.7321 138.206 19.7643 137.931 19.7643C137.655 19.7643 137.405 19.7321 137.179 19.6676C136.954 19.6032 136.76 19.5102 136.599 19.3885C136.438 19.2668 136.311 19.12 136.218 18.9482C136.129 18.7729 136.082 18.576 136.079 18.3577H136.991ZM135.44 20.591H136.428V24.9987H136.449L139.273 20.591H140.406V26.3408H139.413V21.9332H139.391L136.573 26.3408H135.44V20.591ZM141.861 20.591H142.848V22.9103H145.533V20.591H146.526V26.3408H145.533V23.7693H142.848V26.3408H141.861V20.591ZM147.712 22.7814H150.407V23.7746H147.712V22.7814ZM108.328 30.591H109.316V34.9987H109.338L112.161 30.591H113.294V36.3408H112.301V31.9332H112.28L109.461 36.3408H108.328V30.591ZM114.749 30.591H115.737V32.9103H118.421V30.591H119.414V36.3408H118.421V33.7693H115.737V36.3408H114.749V30.591ZM125.39 34.3169C125.375 34.4564 125.347 34.6085 125.304 34.7732C125.264 34.9378 125.205 35.1025 125.127 35.2671C125.048 35.4282 124.946 35.5838 124.821 35.7342C124.699 35.8845 124.549 36.0187 124.37 36.1368C124.194 36.2513 123.987 36.3426 123.747 36.4106C123.507 36.4822 123.233 36.518 122.926 36.518C122.757 36.518 122.58 36.4965 122.394 36.4536C122.208 36.4142 122.025 36.3462 121.846 36.2496C121.671 36.1529 121.503 36.0294 121.342 35.8791C121.184 35.7252 121.045 35.5355 120.923 35.31C120.805 35.0846 120.71 34.8233 120.638 34.5262C120.567 34.2256 120.531 33.882 120.531 33.4955C120.531 33.0194 120.599 32.5917 120.735 32.2124C120.871 31.8294 121.052 31.5055 121.277 31.2406C121.506 30.9758 121.771 30.7718 122.072 30.6286C122.376 30.4855 122.695 30.4139 123.028 30.4139C123.328 30.4139 123.593 30.4461 123.822 30.5105C124.055 30.5749 124.257 30.6608 124.429 30.7682C124.601 30.8756 124.745 31.0008 124.864 31.144C124.982 31.2836 125.077 31.4321 125.148 31.5896C125.223 31.7435 125.279 31.901 125.315 32.062C125.354 32.2231 125.379 32.377 125.39 32.5237H124.466C124.416 32.1336 124.28 31.8276 124.058 31.6057C123.84 31.3838 123.532 31.2729 123.135 31.2729C122.863 31.2729 122.625 31.3283 122.421 31.4393C122.22 31.5502 122.052 31.7059 121.916 31.9063C121.784 32.1032 121.684 32.343 121.616 32.6257C121.551 32.9049 121.519 33.2127 121.519 33.5491C121.519 33.9285 121.555 34.256 121.626 34.5316C121.698 34.8036 121.8 35.0291 121.932 35.208C122.065 35.3834 122.226 35.5141 122.416 35.6C122.609 35.6823 122.827 35.7234 123.07 35.7234C123.242 35.7234 123.405 35.693 123.559 35.6322C123.713 35.5677 123.851 35.4765 123.972 35.3584C124.094 35.2367 124.198 35.0881 124.284 34.9128C124.37 34.7374 124.431 34.5388 124.466 34.3169H125.39ZM127.897 31.45H125.916V30.591H130.866V31.45H128.885V36.3408H127.897V31.45ZM131.864 30.591H132.852V34.9987H132.874L135.697 30.591H136.83V36.3408H135.837V31.9332H135.816L132.997 36.3408H131.864V30.591ZM139.815 31.45H137.834V30.591H142.784V31.45H140.803V36.3408H139.815V31.45ZM143.181 30.591H144.266L145.796 35.2725H145.817L147.347 30.591H148.432L146.236 36.5717C146.125 36.8723 146.023 37.1336 145.93 37.3555C145.837 37.5774 145.746 37.7653 145.656 37.9192C145.567 38.0767 145.475 38.2037 145.382 38.3004C145.293 38.397 145.193 38.4722 145.082 38.5258C144.974 38.5831 144.853 38.6207 144.717 38.6386C144.584 38.6601 144.43 38.6708 144.255 38.6708C144.112 38.6708 143.999 38.6636 143.917 38.6493C143.838 38.6386 143.768 38.6243 143.707 38.6064V37.7152C143.772 37.7367 143.856 37.7581 143.96 37.7796C144.064 37.8011 144.173 37.8118 144.287 37.8118C144.47 37.8118 144.616 37.7671 144.727 37.6776C144.842 37.5917 144.93 37.4682 144.991 37.3072L145.313 36.4965L143.181 30.591ZM150.81 31.45H148.829V30.591H153.779V31.45H151.798V36.3408H150.81V31.45ZM113.122 46.3408H108.677V47.7474H107.754V45.4818H108.511C108.668 45.0953 108.794 44.7016 108.887 44.3007C108.98 43.8963 109.051 43.4901 109.101 43.0821C109.151 42.6705 109.184 42.2571 109.198 41.8419C109.212 41.4268 109.219 41.0098 109.219 40.591H113.235V45.4818H114.046V47.7474H113.122V46.3408ZM112.247 45.4818V41.45H110.164C110.139 41.7757 110.112 42.1104 110.084 42.4539C110.059 42.7975 110.023 43.1429 109.976 43.4901C109.933 43.8337 109.874 44.1737 109.799 44.5101C109.728 44.8466 109.633 45.1705 109.515 45.4818H112.247ZM114.996 40.591H115.984V44.9987H116.005L118.829 40.591H119.962V46.3408H118.969V41.9332H118.947L116.129 46.3408H114.996V40.591ZM122.904 43.0177H123.403C123.536 43.0177 123.674 43.0015 123.817 42.9693C123.96 42.9371 124.091 42.887 124.209 42.819C124.327 42.7474 124.423 42.6562 124.499 42.5452C124.577 42.4343 124.617 42.3 124.617 42.1426C124.617 42.028 124.592 41.9189 124.541 41.8151C124.495 41.7077 124.423 41.6147 124.327 41.5359C124.234 41.4536 124.116 41.3892 123.972 41.3426C123.829 41.2961 123.663 41.2729 123.473 41.2729C123.373 41.2729 123.255 41.2872 123.119 41.3158C122.983 41.3444 122.849 41.3981 122.716 41.4769C122.587 41.552 122.471 41.6612 122.367 41.8043C122.267 41.9439 122.203 42.1265 122.174 42.3519H121.251C121.276 42.0943 121.327 41.8688 121.406 41.6755C121.485 41.4787 121.583 41.3086 121.701 41.1655C121.82 41.0223 121.952 40.9024 122.099 40.8058C122.249 40.7091 122.403 40.6322 122.56 40.5749C122.722 40.5177 122.883 40.4765 123.044 40.4515C123.205 40.4264 123.359 40.4139 123.505 40.4139C123.763 40.4139 124.017 40.4479 124.268 40.5159C124.518 40.5803 124.742 40.6805 124.939 40.8165C125.139 40.9489 125.3 41.1172 125.422 41.3212C125.544 41.5252 125.604 41.7632 125.604 42.0352C125.604 42.2106 125.579 42.3663 125.529 42.5023C125.479 42.6347 125.413 42.751 125.331 42.8512C125.252 42.9514 125.162 43.0373 125.062 43.1089C124.962 43.1769 124.864 43.2342 124.767 43.2807V43.3076C124.867 43.3255 124.978 43.363 125.1 43.4203C125.221 43.474 125.334 43.5527 125.438 43.6565C125.542 43.7567 125.628 43.8874 125.696 44.0484C125.767 44.2059 125.803 44.3992 125.803 44.6282C125.803 44.9504 125.733 45.2295 125.594 45.4657C125.458 45.702 125.279 45.8988 125.057 46.0563C124.835 46.2102 124.584 46.3247 124.305 46.3999C124.026 46.4786 123.745 46.518 123.462 46.518C123.097 46.518 122.766 46.4715 122.469 46.3784C122.176 46.2853 121.922 46.1529 121.707 45.9811C121.492 45.8093 121.32 45.6035 121.191 45.3637C121.066 45.1239 120.991 44.8591 120.966 44.5692H121.959C121.984 44.7803 122.045 44.9557 122.142 45.0953C122.238 45.2349 122.355 45.3458 122.491 45.4282C122.627 45.5105 122.777 45.5695 122.942 45.6053C123.11 45.6411 123.28 45.659 123.452 45.659C123.906 45.659 124.246 45.5677 124.472 45.3852C124.701 45.2027 124.815 44.9575 124.815 44.6497C124.815 44.5173 124.794 44.3992 124.751 44.2954C124.711 44.1916 124.643 44.1039 124.547 44.0323C124.45 43.9572 124.321 43.9017 124.16 43.8659C124.003 43.8265 123.806 43.8068 123.57 43.8068C123.523 43.8068 123.47 43.8086 123.409 43.8122C123.351 43.8122 123.292 43.814 123.232 43.8176C123.174 43.8212 123.117 43.8265 123.06 43.8337C123.002 43.8373 122.951 43.8408 122.904 43.8444V43.0177ZM126.904 42.3144C126.914 41.9636 126.981 41.6683 127.102 41.4285C127.224 41.1852 127.389 40.9883 127.596 40.838C127.804 40.6877 128.049 40.5803 128.332 40.5159C128.618 40.4479 128.929 40.4139 129.266 40.4139C129.545 40.4139 129.815 40.4425 130.077 40.4998C130.341 40.557 130.576 40.6501 130.78 40.7789C130.984 40.9042 131.147 41.0688 131.268 41.2729C131.394 41.4733 131.456 41.7184 131.456 42.0084V45.353C131.456 45.4461 131.481 45.5266 131.531 45.5946C131.582 45.659 131.662 45.6912 131.773 45.6912C131.823 45.6912 131.875 45.6876 131.929 45.6805C131.982 45.6697 132.038 45.659 132.095 45.6483V46.3301C132.013 46.3516 131.93 46.3712 131.848 46.3891C131.769 46.407 131.675 46.416 131.564 46.416C131.392 46.416 131.243 46.4017 131.118 46.373C130.996 46.3444 130.893 46.2979 130.807 46.2334C130.724 46.1654 130.66 46.0795 130.613 45.9758C130.567 45.8684 130.536 45.7377 130.522 45.5838C130.4 45.7163 130.272 45.8398 130.136 45.9543C130 46.0652 129.847 46.1637 129.679 46.2496C129.511 46.3319 129.323 46.3963 129.116 46.4428C128.908 46.4929 128.674 46.518 128.412 46.518C128.19 46.518 127.974 46.4822 127.763 46.4106C127.555 46.339 127.367 46.2334 127.199 46.0939C127.034 45.9543 126.902 45.7825 126.802 45.5785C126.701 45.3709 126.651 45.1311 126.651 44.8591C126.651 44.562 126.701 44.3061 126.802 44.0914C126.902 43.873 127.033 43.6923 127.194 43.5491C127.355 43.4024 127.539 43.2897 127.747 43.2109C127.954 43.1322 128.165 43.0803 128.38 43.0552L129.996 42.8566C130.15 42.8387 130.27 42.7796 130.356 42.6794C130.445 42.5756 130.49 42.411 130.49 42.1855C130.49 41.8383 130.375 41.5896 130.146 41.4393C129.921 41.2854 129.595 41.2084 129.169 41.2084C128.733 41.2084 128.407 41.3015 128.192 41.4876C127.977 41.6701 127.856 41.9457 127.827 42.3144H126.904ZM130.468 43.4149C130.39 43.4722 130.291 43.5205 130.173 43.5599C130.059 43.5957 129.932 43.6261 129.792 43.6511C129.652 43.6762 129.504 43.6995 129.346 43.7209C129.189 43.7388 129.031 43.7585 128.874 43.78C128.695 43.805 128.53 43.8408 128.38 43.8874C128.23 43.9339 128.099 43.9947 127.988 44.0699C127.877 44.1451 127.791 44.2363 127.73 44.3437C127.67 44.4475 127.639 44.571 127.639 44.7141C127.639 44.8788 127.664 45.0237 127.714 45.149C127.768 45.2743 127.84 45.3798 127.929 45.4657C128.022 45.5516 128.133 45.6161 128.262 45.659C128.391 45.702 128.532 45.7234 128.686 45.7234C128.783 45.7234 128.894 45.7127 129.019 45.6912C129.144 45.6662 129.273 45.6304 129.405 45.5838C129.538 45.5373 129.667 45.4783 129.792 45.4067C129.921 45.3315 130.035 45.242 130.136 45.1383C130.236 45.0345 130.316 44.9163 130.377 44.7839C130.438 44.6515 130.468 44.503 130.468 44.3383V43.4149ZM134.586 38.3577C134.633 38.5868 134.729 38.7693 134.876 38.9053C135.023 39.0377 135.239 39.1039 135.526 39.1039C135.816 39.1039 136.034 39.0395 136.181 38.9107C136.327 38.7782 136.422 38.5939 136.465 38.3577H137.383C137.38 38.5724 137.333 38.7675 137.244 38.9429C137.154 39.1147 137.027 39.2614 136.862 39.3831C136.701 39.5048 136.506 39.5996 136.277 39.6676C136.052 39.7321 135.801 39.7643 135.526 39.7643C135.25 39.7643 135 39.7321 134.774 39.6676C134.549 39.6032 134.355 39.5102 134.194 39.3885C134.033 39.2668 133.906 39.12 133.813 38.9482C133.724 38.7729 133.677 38.576 133.673 38.3577H134.586ZM133.035 40.591H134.022V44.9987H134.044L136.868 40.591H138.001V46.3408H137.007V41.9332H136.986L134.167 46.3408H133.035V40.591ZM139.455 40.591H140.443V42.9103H143.128V40.591H144.121V46.3408H143.128V43.7693H140.443V46.3408H139.455V40.591ZM145.565 42.3144C145.576 41.9636 145.642 41.6683 145.764 41.4285C145.885 41.1852 146.05 40.9883 146.257 40.838C146.465 40.6877 146.71 40.5803 146.993 40.5159C147.279 40.4479 147.591 40.4139 147.927 40.4139C148.206 40.4139 148.477 40.4425 148.738 40.4998C149.003 40.557 149.237 40.6501 149.441 40.7789C149.645 40.9042 149.808 41.0688 149.93 41.2729C150.055 41.4733 150.118 41.7184 150.118 42.0084V45.353C150.118 45.4461 150.143 45.5266 150.193 45.5946C150.243 45.659 150.323 45.6912 150.434 45.6912C150.484 45.6912 150.536 45.6876 150.59 45.6805C150.644 45.6697 150.699 45.659 150.756 45.6483V46.3301C150.674 46.3516 150.592 46.3712 150.509 46.3891C150.431 46.407 150.336 46.416 150.225 46.416C150.053 46.416 149.905 46.4017 149.779 46.373C149.658 46.3444 149.554 46.2979 149.468 46.2334C149.386 46.1654 149.321 46.0795 149.275 45.9758C149.228 45.8684 149.198 45.7377 149.183 45.5838C149.062 45.7163 148.933 45.8398 148.797 45.9543C148.661 46.0652 148.509 46.1637 148.341 46.2496C148.172 46.3319 147.984 46.3963 147.777 46.4428C147.569 46.4929 147.335 46.518 147.074 46.518C146.852 46.518 146.635 46.4822 146.424 46.4106C146.216 46.339 146.028 46.2334 145.86 46.0939C145.696 45.9543 145.563 45.7825 145.463 45.5785C145.363 45.3709 145.313 45.1311 145.313 44.8591C145.313 44.562 145.363 44.3061 145.463 44.0914C145.563 43.873 145.694 43.6923 145.855 43.5491C146.016 43.4024 146.2 43.2897 146.408 43.2109C146.615 43.1322 146.827 43.0803 147.041 43.0552L148.657 42.8566C148.811 42.8387 148.931 42.7796 149.017 42.6794C149.106 42.5756 149.151 42.411 149.151 42.1855C149.151 41.8383 149.037 41.5896 148.808 41.4393C148.582 41.2854 148.256 41.2084 147.83 41.2084C147.394 41.2084 147.068 41.3015 146.853 41.4876C146.639 41.6701 146.517 41.9457 146.488 42.3144H145.565ZM149.13 43.4149C149.051 43.4722 148.953 43.5205 148.834 43.5599C148.72 43.5957 148.593 43.6261 148.453 43.6511C148.314 43.6762 148.165 43.6995 148.008 43.7209C147.85 43.7388 147.693 43.7585 147.535 43.78C147.356 43.805 147.192 43.8408 147.041 43.8874C146.891 43.9339 146.76 43.9947 146.649 44.0699C146.538 44.1451 146.453 44.2363 146.392 44.3437C146.331 44.4475 146.3 44.571 146.3 44.7141C146.3 44.8788 146.325 45.0237 146.376 45.149C146.429 45.2743 146.501 45.3798 146.59 45.4657C146.683 45.5516 146.794 45.6161 146.923 45.659C147.052 45.702 147.193 45.7234 147.347 45.7234C147.444 45.7234 147.555 45.7127 147.68 45.6912C147.805 45.6662 147.934 45.6304 148.067 45.5838C148.199 45.5373 148.328 45.4783 148.453 45.4067C148.582 45.3315 148.697 45.242 148.797 45.1383C148.897 45.0345 148.978 44.9163 149.038 44.7839C149.099 44.6515 149.13 44.503 149.13 44.3383V43.4149Z" fill="#E2E1D9"></path><path fill-rule="evenodd" clip-rule="evenodd" d="M8.68555 17.9101L8.68568 27.6387L10.911 27.6486C12.9415 27.6576 13.2413 27.6905 14.3323 28.0226C18.0278 29.1475 20.904 31.5994 22.4487 34.9411C23.0766 36.2997 23.4 37.5933 23.6287 39.6606C24.0851 43.788 25.446 45.9974 27.353 46.83C28.1 47.1562 28.7235 47.4941 29.9439 47.4941C31.0003 47.4941 32.892 47.3974 34.4612 44.7715C36.1278 41.9828 37.3128 38.7102 38.1401 34.5227C39.1778 29.2707 38.4512 23.56 37.8359 20.8177C36.7566 16.0079 34.7263 12.0174 32.3905 10.1155C31.4472 9.34734 30.1168 8.66441 29.1734 8.464C28.1578 8.24831 25.8907 8.27727 24.967 8.51779C23.0712 9.01145 20.5624 10.5759 19.8462 13.2285C19.3605 15.0271 19.9172 17.2887 20.3457 18.1645C21.499 20.5208 22.8925 21.713 27.6852 24.4433C32.144 26.9834 33.252 28.0861 33.6804 30.4094C33.9676 31.9682 33.4358 33.407 32.287 34.1778C31.4488 34.7404 30.7363 34.9213 29.6781 34.8405C27.9663 34.7099 26.8276 33.9427 25.6332 32.1154C25.1696 31.4063 22.3398 26.5529 19.3445 21.3301C16.3492 16.1072 13.428 11.0139 12.8531 10.0117L11.8079 8.18921L10.2467 8.18549L8.68555 8.18164V17.9101ZM44.2932 11.6348V15.0879H48.0798H51.8665V11.6348V8.18164H48.0798H44.2932V11.6348ZM58.1111 27.9707V47.4941H61.8977H65.6844V27.9707V8.44727H61.8977H58.1111V27.9707ZM71.929 27.9707V47.4941H75.7156H79.5023V27.9707V8.44727H75.7156H71.929V27.9707ZM44.2932 33.084V47.4941H48.0798H51.8665V33.084V18.6738H48.0798H44.2932V33.084ZM85.3483 43.5761V47.4941H89.4007H93.453V43.5761V39.6582H89.4007H85.3483V43.5761Z" fill="#E2E1D9"></path></svg> 